<svg width="180" height="46" viewBox="0 0 180 46" fill="none" xmlns="http://www.w3.org/2000/svg">
<g clip-path="url(#clip0_1610_10506)">
<mask id="mask0_1610_10506" style="mask-type:luminance" maskUnits="userSpaceOnUse" x="0" y="0" width="180" height="46">
<path d="M179.867 0H0V46H179.867V0Z" fill="white"/>
</mask>
<g mask="url(#mask0_1610_10506)">
<path d="M64.3584 15.0303C66.3381 14.9789 67.7902 15.0148 69.5466 16.1868C75.5181 20.1714 73.7337 29.2419 66.7314 30.7026C64.2314 31.2242 63.2265 30.4555 61.2172 29.0692L61.0654 29.1441L60.9452 29.525C60.9086 31.0324 61.16 33.2477 60.7646 34.6167C60.4566 35.6834 58.1986 35.3695 57.5 35C57.3142 32.4215 57.3549 28.3191 57.357 25.6207C57.3595 22.4789 57.2514 18.644 57.4259 15.5707C58.3882 15.1381 59.0422 15.1726 60.0615 15.233C60.4597 15.9106 60.4621 16.037 60.6796 16.7824C61.8799 16.6948 62.2534 15.3551 64.3584 15.0303ZM66.0771 27.2774C68.4815 26.7965 70.0504 24.4703 69.5946 22.0621C69.1388 19.6539 66.8283 18.0613 64.4143 18.4916C62.83 18.7739 61.5195 19.8852 60.9826 21.4016C60.4457 22.918 60.7652 24.6058 61.8192 25.8214C62.8731 27.037 64.4991 27.593 66.0771 27.2774Z" fill="#2E2E2E"/>
<path d="M141.883 15.0412C144.89 14.5383 146.796 16.7189 147.488 16.6598C147.662 15.9944 147.635 15.8519 148.061 15.2958C149.331 15.1107 149.76 15.0688 150.829 15.7367L150.828 25.3303C150.829 26.85 150.888 28.4942 150.741 29.9985C150.653 30.8887 148.194 30.511 147.597 30.3956C147.446 29.9868 147.309 29.4387 146.973 29.212C146.676 29.2223 146.269 29.6501 146.021 29.8671C145.514 30.4401 144.04 30.6789 143.266 30.7802C139.358 31.2922 135.321 27.4294 134.88 23.6505C134.411 19.6391 137.708 15.4519 141.883 15.0412ZM143.959 27.1991C146.347 26.5679 147.772 24.1208 147.139 21.7338C146.507 19.3469 144.059 17.9242 141.671 18.5561C139.283 19.1881 137.86 21.6347 138.493 24.0212C139.124 26.4077 141.572 27.8304 143.959 27.1991Z" fill="#2E2E2E"/>
<path d="M109.168 15.073C113.464 14.602 117.338 17.6768 117.852 21.9656C118.366 26.2545 115.329 30.1573 111.044 30.7144C108.234 31.0798 105.442 29.9084 103.736 27.6467C102.029 25.3848 101.669 22.3812 102.793 19.7803C103.916 17.1795 106.351 15.382 109.168 15.073ZM110.975 27.3019C112.208 26.8671 113.214 26.1989 113.783 24.9865C114.752 22.9205 114.079 19.798 111.892 18.7887C110.957 18.3573 110.04 18.3831 109.053 18.473C106.399 19.1387 105.366 21.8935 105.989 24.3549C106.246 25.3988 106.911 26.2961 107.836 26.8456C108.83 27.426 109.868 27.4626 110.975 27.3019Z" fill="#2E2E2E"/>
<path d="M48.2114 12.3223C48.4079 12.3241 48.6043 12.3334 48.8 12.3502C50.4315 12.4978 52.9438 13.4606 54.0943 14.6817C55.1115 15.7611 53.3408 16.9838 52.5598 17.6195C50.3226 16.2754 49.9009 15.3191 47.0623 15.9662C46.4326 16.5469 46.2601 16.7664 45.9164 17.5146L46.5116 18.4788C49.9501 20.1589 55.5757 20.6761 55.1993 25.5085C54.9049 29.287 51.1904 30.894 47.8767 30.7939C45.7232 30.4466 42.42 29.2381 41.6016 27.0373C41.7351 26.8247 41.8942 26.6271 42.0554 26.4351C42.3902 26.0365 42.9338 25.3663 43.4478 25.2315C44.3432 24.9967 46.7749 27.5687 49.0091 27.3586C49.8355 27.2809 50.5525 26.8408 51.0765 26.2061C51.4788 25.7187 51.4447 25.2794 51.3839 24.6882C49.4595 21.8708 42.6679 22.9839 42.2991 17.7939C42.0309 14.0206 45.0446 12.6476 48.2114 12.3223Z" fill="#2E2E2E"/>
<path d="M155.752 15.246C155.955 15.4843 156.326 15.8721 156.412 16.1498L156.286 16.6609L156.366 16.7285C156.773 16.5874 157.632 16.0828 158.006 15.8311C161.011 13.8024 165.264 15.6856 166.382 18.9079C166.603 19.5402 166.745 20.1973 166.806 20.8645C166.891 21.8355 166.827 23.9792 166.818 25.045C166.808 26.4321 166.959 29.0912 166.787 30.3399C165.956 30.5486 164.211 30.7544 163.469 30.3301C163.136 29.9912 163.167 29.374 163.169 28.9235C163.178 27.0713 163.208 25.2202 163.21 23.3677C163.212 21.9716 163.351 20.4169 162.283 19.3312C161.175 18.204 158.877 18.2933 157.806 19.438C156.471 20.8266 156.678 23.0002 156.686 24.7701L156.707 28.0702C156.714 28.6878 156.848 29.8869 156.542 30.3545C156.073 30.6689 154.428 30.6004 153.88 30.4971C153.742 30.4695 153.606 30.4295 153.474 30.3774C153.268 29.6271 153.603 27.2475 153.607 26.2167C153.62 23.6727 153.691 21.0969 153.592 18.556C153.553 17.5256 153.281 16.5318 153.296 15.5047C153.935 15.1244 155.02 15.1667 155.752 15.246Z" fill="#2E2E2E"/>
<path d="M75.0418 15.2351C76.1455 15.1695 76.6427 15.0276 77.4857 15.7548C78.3805 18.6554 79.7843 22.1897 80.827 25.1289C81.9266 23.2399 83.4215 17.6205 84.4991 15.5209C84.7324 15.0663 86.9259 15.212 87.6189 15.235L88.0884 15.9936C87.3243 18.0006 86.5365 19.9671 85.8143 21.9973C85.4402 23.0489 84.7977 23.9574 84.5067 25.1393C84.1804 25.7804 83.7809 26.8997 83.51 27.6013L81.5997 32.6821C81.2751 33.5451 80.9479 34.5073 80.5158 35.3147C79.4069 35.2931 78.1731 35.4497 77.1031 35.1865C77.4133 33.266 78.6037 31.35 79.0646 29.5053C79.2923 28.5942 77.9629 25.9997 77.6229 25.1057C76.947 23.3489 76.1842 21.6174 75.5 19.8654C75.1363 18.9341 73.5626 16.3274 74.0557 15.3726C74.254 15.2146 74.763 15.2427 75.0418 15.2351Z" fill="#2E2E2E"/>
<path d="M126.363 16.622C126.788 16.5446 127.424 16.5231 127.743 16.3263C127.931 16.0582 127.946 14.8561 128.021 14.4302C128.473 11.8635 130.503 9.5776 133.296 9.91865C133.472 9.94007 133.493 10.0507 133.584 10.1915C133.567 11.0183 133.651 11.9857 133.703 12.8218C131.798 13.8212 131.399 14.1409 131.461 16.3484C132.138 16.4247 132.728 16.4848 133.408 16.516C133.575 16.7482 133.834 17.1356 134.007 17.3442C134.02 18.0161 134.022 18.5335 133.975 19.2024L133.554 19.8349C132.924 19.851 132.265 19.8775 131.638 19.8739C131.599 20.1119 131.481 20.7315 131.468 20.9422C131.268 21.8838 131.274 28.3633 131.461 29.2798L131.42 30.2957C130.759 30.6154 129.028 30.7648 128.369 30.3836C128.064 30.207 128.032 29.9466 127.962 29.633C127.886 28.8289 128.226 28.8067 128.235 28.1018C128.262 26.0276 128.45 23.8263 128.138 21.7745C128.108 21.5766 127.821 19.8828 127.833 19.9056L127.646 19.9048L126.224 19.7376C125.94 18.6258 125.883 17.6739 126.363 16.622Z" fill="#2E2E2E"/>
<path d="M92.5098 15.2273C92.84 15.526 93.4794 16.1781 93.8509 16.2894C94.4148 15.9872 95.0366 15.4652 95.5363 15.1969C96.1476 14.8685 97.9093 15.0528 98.5496 15.2935C99.4902 15.6468 101.476 16.2087 100.983 17.5366C100.735 18.2077 100.167 18.7713 99.939 19.4025C98.3204 18.949 96.7825 17.8493 95.0761 18.737C94.3313 19.1244 93.8922 20.204 93.8228 20.992C93.7982 21.1451 93.7007 21.6878 93.6981 21.8115C93.5637 22.5032 93.5444 28.4716 93.692 29.1407C93.6647 29.5463 93.6436 29.9684 93.5997 30.3714C92.5651 30.5472 91.1915 30.8004 90.2729 30.1714C90.1991 30.3384 90.481 28.0607 90.4802 28.073C90.5566 24.7782 90.503 21.4711 90.4889 18.1746C90.4854 17.2608 90.1824 16.5711 90.2474 15.6492C91.0212 15.0795 91.556 15.1794 92.5098 15.2273Z" fill="#2E2E2E"/>
<path d="M153.296 15.5049C153.281 16.532 153.553 17.5258 153.592 18.5562C153.691 21.097 153.62 23.6729 153.607 26.2168C153.603 27.2477 153.268 29.6272 153.474 30.3775C153.375 30.3145 153.272 30.2177 153.182 30.1391C152.953 28.9579 152.95 16.1737 153.296 15.5049Z" fill="#2E2E2E" fill-opacity="0.74902"/>
<path d="M90.2474 15.6484C90.1824 16.5704 90.4854 17.2601 90.4889 18.1739C90.503 21.4703 90.5566 24.7775 90.4801 28.0723C90.481 28.06 90.1991 30.3377 90.2729 30.1707L90.1306 30.135L90.0735 29.4341C90.0138 28.7739 89.9681 26.0925 90.0147 25.5614C90.1157 24.4081 89.7775 16.2111 90.2474 15.6484Z" fill="#2E2E2E" fill-opacity="0.756863"/>
<path d="M127.646 19.9043L127.834 19.9051C127.821 19.8824 128.108 21.5761 128.138 21.7741C128.45 23.8258 128.262 26.0271 128.236 28.1013C128.226 28.8062 127.886 28.8284 127.963 29.6325C127.417 28.1868 128.078 20.5998 127.646 19.9043Z" fill="#2E2E2E" fill-opacity="0.772549"/>
<path d="M133.584 10.1912C133.9 10.1094 133.793 10.0905 134.042 10.2172C134.276 10.6569 134.34 12.772 133.703 12.8215C133.651 11.9855 133.568 11.0181 133.584 10.1912Z" fill="#1D1D1E" fill-opacity="0.0156863"/>
<path d="M17.5176 22.0271C17.5967 21.8435 17.6108 21.8217 17.7552 21.6837C18.0858 21.5545 18.6005 21.6214 18.9689 21.6435C19.2373 21.8273 19.5513 22.0877 19.8646 22.1006C20.4568 22.2638 21.6772 22.2929 22.3224 22.3083C23.2995 23.2433 24.2631 23.0861 25.4826 23.7009C27.7968 24.8677 30.3494 26.5387 32.0159 28.5455C32.4705 29.0929 33.2149 30.7519 33.3673 31.4077C33.6072 32.4396 34.0846 32.215 34.0865 33.2121C34.0877 33.8047 34.0889 34.3671 34.0833 34.946C33.4539 35.7822 33.6549 36.1456 33.2784 36.9281C32.6588 38.2157 31.4331 40.0512 30.3899 41.0267C30.208 41.1969 29.0831 41.811 28.7407 42.0736C27.8396 42.7048 26.4911 43.7232 25.4478 44.0099C24.7116 44.2123 24.0689 44.3976 23.3548 44.6217C22.4269 44.9129 21.8961 44.7282 21.0531 45.3918C18.9898 45.4998 15.3172 45.6571 13.3123 45.4298C10.5607 45.1177 7.02365 44.0167 4.65083 42.6734C3.79899 42.1595 3.01586 41.1956 2.21018 40.6098C2.10984 39.5766 2.05154 39.1395 2.23121 38.1143C2.69978 37.7046 2.90228 37.4186 3.45072 37.0901C7.61235 34.5971 17.4386 33.2974 17.9058 27.3398C18.0235 25.839 16.6999 24.5154 16.6458 23.439L16.7012 22.276C17.1159 22.2997 17.2821 22.3773 17.5176 22.0271Z" fill="#007BC9"/>
<path d="M12.5399 0H21.8085L21.6499 0.29793L21.7518 0.414708C22.3994 0.448991 23.5699 0.44221 24.1904 0.607606C26.373 1.1894 29.4504 2.43027 30.9765 4.15607C31.8646 5.16031 31.9978 5.67405 31.9588 6.86168C31.6395 7.18461 31.0779 7.92819 30.7612 8.13817C29.2753 9.12354 27.387 9.51717 25.908 10.1553C22.6887 11.5443 16.1368 13.7477 16.0037 17.973C15.9767 18.8302 16.6431 20.4941 17.0969 21.2511C17.1431 21.3281 17.3695 21.3511 17.5001 21.4802L17.5175 22.0267C17.282 22.377 17.1158 22.2994 16.701 22.2757L16.6457 23.4387C16.4345 23.3604 16.1873 23.3955 15.9591 23.4092C15.6454 23.341 15.1013 23.1268 14.8224 23.1138C9.58083 22.869 4.39768 19.8627 1.25718 15.7115C0.755248 15.0481 0.888902 14.1473 0 13.4791V9.21317C0.614373 8.90074 0.619386 8.29889 0.946885 7.70142C1.5205 6.65494 2.49202 5.15594 3.43395 4.41436C4.89782 3.26183 6.60412 2.22025 8.26828 1.39826C9.10077 1.01691 9.30497 1.43087 10.3762 0.599312C11.1724 0.551922 11.8291 0.507036 12.6171 0.39655C12.5511 0.242151 12.5435 0.210755 12.5404 0.0408182L12.5399 0Z" fill="#E62928"/>
<path d="M15.959 23.4089C15.9946 23.0439 15.9322 22.7982 16.0343 22.441C16.2755 22.2322 16.3184 22.297 16.7009 22.2754L16.6456 23.4384C16.4344 23.3601 16.1872 23.3952 15.959 23.4089Z" fill="#99455F"/>
<path d="M16.7012 22.2759C16.7099 22.0793 16.7373 21.9169 16.7675 21.7241C17.036 21.4975 17.1013 21.5511 17.5002 21.4805L17.5176 22.0269C17.2821 22.3772 17.1159 22.2996 16.7012 22.2759Z" fill="#99455F"/>
<path d="M175.317 27.054C176.29 25.7028 175.75 25.0126 174.243 24.5512C171.753 23.788 169.065 23.2213 168.524 20.1577C167.697 15.4059 173.765 13.6468 177.14 15.9599C178.659 17.0016 179.848 18.5156 176.804 19.4549C176.195 19.643 175.119 17.7897 173.891 18.1393C172.997 18.3938 171.822 18.6046 171.964 19.842C173.347 21.6801 178.478 21.0067 179.176 24.8795C179.181 25.2302 179.177 26.757 179.225 27.0592C178.364 31.5501 171.001 31.9585 168.605 28.5807C168.186 27.9902 168.059 27.6206 168.148 26.8965C168.324 26.5467 169.356 26.0244 169.737 25.8297C170.194 25.6073 170.608 26.0633 170.893 26.3669C172.187 27.7514 173.638 27.7253 175.317 27.054Z" fill="#2E2E2E"/>
<path d="M18.9688 21.6433C19.4439 21.6402 20.3714 21.6005 20.7877 21.7238L20.8883 21.8475L20.8684 21.9953C20.356 22.0787 20.2835 21.8645 19.8645 22.1005C19.5511 22.0875 19.237 21.8271 18.9688 21.6433Z" fill="#007BC9" fill-opacity="0.0196078"/>
</g>
</g>
<defs>
<clipPath id="clip0_1610_10506">
<rect width="180" height="46" fill="white"/>
</clipPath>
</defs>
</svg>
